<svg xmlns="http://www.w3.org/2000/svg" viewBox="0 0 512 512" role="img" aria-labelledby="title desc">
  <title id="title">Tuti island 2t mark</title>
  <desc id="desc">A flat circular island logo with river negative space that subtly hides a 2t monogram.</desc>
  <path
    fill="#073d32"
    fill-rule="evenodd"
    d="M256 34C318 34 374 59 415 100C456 141 481 197 481 259C481 318 458 373 419 414C379 456 324 482 263 484C201 486 144 463 102 424C58 383 33 327 33 264C33 205 55 150 94 109C134 66 190 34 256 34ZM155 82C208 50 303 75 315 134C320 158 305 171 282 181C263 190 268 207 292 214C320 223 328 247 310 275C293 305 301 330 333 344C346 350 357 351 364 358C335 398 284 416 232 402C167 384 133 337 146 286C156 246 194 225 229 204C266 182 279 159 264 134C243 100 202 107 171 131C154 143 132 135 128 116C125 101 137 90 155 82Z"
  />
</svg>
